<?xml version="1.0" encoding="UTF-8" ?>
<!DOCTYPE svg PUBLIC "-//W3C//DTD SVG 1.1//EN" "http://www.w3.org/Graphics/SVG/1.1/DTD/svg11.dtd">
<svg width="663pt" height="210pt" viewBox="0 0 663 210" version="1.1" xmlns="http://www.w3.org/2000/svg">
<g id="#85d3f2ff">
<path fill="#85d3f2" opacity="1.00" d=" M 425.93 11.00 C 426.76 10.99 428.43 10.98 429.26 10.97 C 428.38 11.63 427.51 12.29 426.65 12.95 C 427.34 14.04 428.03 15.13 428.74 16.23 C 425.80 16.05 425.79 13.20 425.93 11.00 Z" />
</g>
<g id="#4cbfecff">
<path fill="#4cbfec" opacity="1.00" d=" M 429.26 10.97 C 430.87 11.06 432.55 10.76 434.12 11.33 C 435.96 12.06 437.94 12.46 439.93 12.06 L 440.69 12.01 C 443.80 12.04 446.90 12.35 449.99 12.79 C 450.65 12.88 451.97 13.06 452.63 13.15 C 452.68 13.19 452.78 13.28 452.83 13.32 L 454.00 14.34 C 454.51 14.51 455.53 14.83 456.05 14.99 C 456.65 15.16 457.86 15.49 458.47 15.66 L 459.61 16.27 C 459.65 16.29 459.73 16.33 459.76 16.35 L 461.53 17.27 C 461.58 17.30 461.67 17.35 461.71 17.37 L 463.10 18.29 C 463.59 18.47 464.57 18.84 465.06 19.03 L 465.55 18.91 C 466.06 19.26 467.07 19.97 467.57 20.32 C 467.61 20.35 467.69 20.41 467.73 20.44 C 469.70 21.99 471.27 24.04 473.44 25.36 C 473.52 25.40 473.69 25.48 473.78 25.52 L 474.95 26.10 L 475.01 27.17 C 474.82 28.82 476.22 30.17 477.83 30.13 L 477.96 31.16 C 477.89 32.82 479.36 33.80 480.69 34.45 C 481.99 35.05 482.68 36.36 483.36 37.55 C 485.03 40.39 486.82 43.20 488.02 46.29 C 489.31 49.93 490.61 53.64 490.73 57.55 L 491.43 57.46 C 491.07 62.44 491.00 67.44 490.98 72.43 C 490.82 75.14 490.71 77.84 490.60 80.55 L 488.99 80.42 C 489.27 82.25 489.54 84.08 489.83 85.92 L 488.09 85.35 C 488.22 87.19 488.37 89.04 488.37 90.89 C 488.24 91.17 487.99 91.72 487.86 91.99 C 486.64 94.21 485.56 96.53 484.96 99.00 L 484.72 99.84 C 485.97 99.93 487.22 100.04 488.47 100.18 L 489.82 100.35 C 484.19 101.72 478.39 101.22 472.65 101.41 C 478.37 95.29 480.31 86.99 481.99 79.05 C 482.77 73.46 482.55 67.78 481.98 62.19 C 482.56 60.38 482.26 58.48 481.20 56.92 C 481.03 56.39 480.69 55.34 480.53 54.81 L 480.44 54.54 L 480.33 54.33 L 480.12 53.90 C 479.12 51.17 478.10 48.38 476.26 46.08 C 475.87 45.49 475.07 44.31 474.67 43.72 L 474.52 43.50 L 474.40 43.29 L 474.16 42.85 C 473.18 40.03 470.95 38.03 468.66 36.25 C 462.66 28.59 454.96 21.97 445.63 18.82 C 446.97 23.47 448.61 28.03 450.57 32.46 C 451.50 36.05 450.88 39.82 450.96 43.49 C 450.04 47.87 449.23 52.28 448.68 56.73 C 446.30 61.19 444.10 65.85 440.69 69.64 C 436.40 74.45 431.15 78.25 425.78 81.75 C 420.95 84.88 416.48 88.59 411.30 91.17 C 408.75 90.05 406.34 88.58 404.68 86.30 C 406.22 85.86 407.69 85.15 408.75 83.90 C 409.27 83.30 409.78 82.68 410.28 82.05 L 411.15 81.96 C 413.01 82.02 414.56 80.86 415.47 79.31 C 415.92 78.84 416.81 77.90 417.26 77.42 C 417.30 77.39 417.39 77.32 417.44 77.29 C 418.62 76.53 419.78 75.70 421.02 75.01 C 423.13 73.94 425.14 72.63 426.71 70.83 C 427.58 69.94 428.41 69.01 429.26 68.09 L 430.16 68.07 C 431.88 68.32 432.95 66.68 433.05 65.15 C 433.12 63.83 434.38 63.10 435.31 62.36 C 436.84 61.51 438.13 60.04 437.95 58.17 L 438.01 57.07 L 439.09 56.74 C 439.36 56.32 439.90 55.47 440.17 55.05 L 440.12 53.54 C 440.17 53.46 440.26 53.29 440.31 53.20 C 444.63 47.03 443.43 38.84 441.30 32.08 C 440.95 30.36 440.02 28.74 440.11 26.96 C 439.85 26.53 439.33 25.67 439.08 25.25 L 438.03 24.94 L 438.07 23.83 C 438.13 22.51 437.50 21.88 436.18 21.95 L 434.99 21.98 C 434.90 21.65 434.73 20.99 434.65 20.66 L 434.51 20.10 C 433.34 18.77 432.02 17.32 430.16 17.10 L 429.17 16.89 C 429.06 16.72 428.84 16.39 428.74 16.23 C 428.03 15.13 427.34 14.04 426.65 12.95 C 427.51 12.29 428.38 11.63 429.26 10.97 Z" />
<path fill="#4cbfec" opacity="1.00" d=" M 142.00 87.84 C 146.65 87.27 151.33 87.00 156.01 87.00 C 156.54 87.02 157.59 87.08 158.12 87.10 C 158.59 87.35 159.52 87.85 159.98 88.10 L 161.64 88.12 L 161.26 88.63 C 153.75 93.64 143.99 90.39 136.38 95.19 C 136.65 95.62 137.20 96.49 137.47 96.93 C 132.55 97.40 128.01 99.20 123.91 101.91 C 120.59 101.96 117.27 101.66 113.96 101.47 C 116.07 98.45 118.90 96.10 121.67 93.71 L 122.41 93.04 L 123.12 93.09 C 124.71 93.49 126.12 92.51 127.02 91.30 L 128.15 91.11 C 129.65 91.07 131.56 90.80 131.97 89.05 C 132.50 89.07 133.57 89.11 134.10 89.13 C 135.30 89.42 136.19 89.08 136.77 88.10 C 138.51 88.02 140.26 88.00 142.00 87.84 Z" />
<path fill="#4cbfec" opacity="1.00" d=" M 585.14 112.72 C 587.52 114.02 591.00 114.40 592.02 117.31 C 593.30 121.31 592.62 125.71 590.47 129.29 C 589.80 128.95 588.47 128.27 587.80 127.93 C 588.02 126.93 588.21 125.93 588.39 124.92 C 588.46 122.94 589.12 120.70 587.98 118.90 C 586.78 116.96 585.56 115.01 585.14 112.72 Z" />
</g>
<g id="#9bdbf4ff">
<path fill="#9bdbf4" opacity="1.00" d=" M 434.12 11.33 C 435.66 10.77 439.62 9.97 439.93 12.06 C 437.94 12.46 435.96 12.06 434.12 11.33 Z" />
</g>
<g id="#ffffffff">
<path fill="#ffffff" opacity="1.00" d=" M 440.69 12.01 C 443.79 11.97 446.89 12.06 450.00 12.01 L 449.99 12.79 C 446.90 12.35 443.80 12.04 440.69 12.01 Z" />
<path fill="#ffffff" opacity="1.00" d=" M 430.16 17.10 C 432.02 17.32 433.34 18.77 434.51 20.10 L 434.65 20.66 C 432.81 21.49 430.56 18.62 430.16 17.10 Z" />
<path fill="#ffffff" opacity="1.00" d=" M 445.63 18.82 C 454.96 21.97 462.66 28.59 468.66 36.25 L 469.42 37.72 C 470.89 39.53 472.61 41.11 474.16 42.85 L 474.40 43.29 L 474.52 43.52 L 474.67 43.72 C 475.07 44.31 475.87 45.49 476.26 46.08 C 477.45 48.74 478.71 51.36 480.12 53.90 L 480.33 54.33 L 480.45 54.58 L 480.53 54.81 C 480.69 55.34 481.03 56.39 481.20 56.92 C 480.56 58.68 480.47 60.82 481.98 62.19 C 482.55 67.78 482.77 73.46 481.99 79.05 C 480.31 86.99 478.37 95.29 472.65 101.41 C 471.23 103.20 470.41 105.33 469.77 107.50 C 477.87 107.40 486.00 107.22 494.06 108.24 C 500.42 108.96 506.69 107.41 513.02 107.32 C 527.07 107.66 541.29 107.30 555.02 110.76 C 564.30 113.03 574.09 113.76 582.78 118.02 C 584.12 119.18 585.49 120.33 586.87 121.46 C 587.36 122.61 587.87 123.77 588.39 124.92 C 588.21 125.93 588.02 126.93 587.80 127.93 C 586.47 129.85 584.45 131.06 582.50 132.23 C 591.09 134.86 600.15 135.40 608.95 137.11 C 615.99 138.24 622.80 140.36 629.66 142.24 C 633.49 143.32 637.54 143.98 641.02 146.03 C 643.93 147.75 646.35 150.17 649.00 152.25 C 649.01 153.79 649.03 155.33 649.05 156.87 C 647.56 158.34 646.08 159.81 644.61 161.30 C 640.54 165.82 635.72 169.94 629.74 171.62 C 620.26 175.23 610.06 175.84 600.03 176.33 C 591.77 177.88 583.33 176.87 574.99 177.19 C 567.21 177.53 559.53 176.02 551.98 174.32 C 551.50 174.48 550.55 174.81 550.07 174.98 C 548.38 174.50 546.68 174.04 545.00 173.59 C 541.05 174.85 537.83 177.38 534.52 179.73 C 527.51 181.97 520.22 183.14 512.92 183.94 C 504.96 185.23 496.97 186.25 488.96 187.11 C 482.28 187.18 475.61 187.12 468.93 187.13 C 467.37 187.35 466.08 186.63 465.20 185.39 C 456.73 184.27 448.25 183.32 439.84 181.84 C 436.19 181.12 432.95 179.26 429.56 177.84 C 428.52 176.81 427.78 174.90 426.00 175.22 C 423.57 175.65 421.81 177.65 419.72 178.82 C 415.63 180.46 412.16 183.44 407.85 184.53 C 401.47 185.95 395.68 189.70 388.95 189.50 C 377.69 191.83 366.23 193.20 355.00 195.72 C 349.72 196.85 344.35 195.14 339.06 196.05 C 332.08 197.04 325.11 198.50 318.02 198.37 C 305.64 198.27 293.24 198.63 280.88 198.15 C 272.10 196.31 263.07 195.94 254.12 196.06 C 235.22 194.53 216.49 190.58 198.70 183.98 C 192.01 180.38 185.47 176.29 178.05 174.34 C 174.18 173.48 170.33 174.70 166.57 175.48 C 158.30 175.08 150.26 177.72 141.98 177.42 C 129.01 177.21 115.84 178.93 103.04 176.17 C 92.77 174.61 82.48 173.13 72.33 170.90 C 68.00 169.91 63.57 169.68 59.16 169.36 C 55.69 168.58 52.55 166.79 49.31 165.36 C 43.69 162.26 38.07 157.56 36.79 150.96 C 37.13 148.81 38.12 146.85 38.99 144.88 C 41.44 142.48 44.43 140.76 47.63 139.57 C 63.53 131.76 81.16 128.45 98.59 126.12 C 99.80 125.93 101.02 125.71 102.22 125.47 C 101.27 124.00 100.32 122.54 99.36 121.09 C 99.74 118.79 100.14 116.50 100.52 114.21 C 102.48 112.57 104.30 110.68 106.64 109.58 C 109.04 108.56 111.75 108.91 114.22 108.15 C 117.55 106.23 120.47 103.66 123.91 101.91 C 128.01 99.20 132.55 97.40 137.47 96.93 C 140.95 96.29 144.42 95.41 147.98 95.47 C 153.75 95.30 159.20 97.81 164.98 97.64 C 170.31 97.55 175.68 97.10 181.00 97.82 C 187.39 98.76 193.91 98.02 200.28 99.19 C 209.15 100.71 218.16 101.08 227.02 102.62 C 228.13 102.76 229.24 102.88 230.36 103.00 C 233.84 104.11 237.36 105.93 241.12 105.32 C 243.53 104.47 245.60 102.94 247.82 101.70 C 253.43 98.42 259.86 97.02 266.09 95.40 C 277.32 92.31 289.03 92.05 300.49 90.27 C 314.31 89.43 328.16 88.71 342.01 88.96 C 362.03 89.78 382.18 89.12 402.04 92.23 C 405.17 92.77 408.47 92.83 411.30 91.17 C 416.48 88.59 420.95 84.88 425.78 81.75 C 431.15 78.25 436.40 74.45 440.69 69.64 C 444.10 65.85 446.30 61.19 448.68 56.73 L 449.63 55.30 C 449.92 54.14 450.14 52.97 450.39 51.80 C 451.20 49.10 451.02 46.27 450.96 43.49 C 450.88 39.82 451.50 36.05 450.57 32.46 C 448.61 28.03 446.97 23.47 445.63 18.82 Z" />
<path fill="#ffffff" opacity="1.00" d=" M 436.18 21.95 C 437.50 21.88 438.13 22.51 438.07 23.83 C 436.63 24.00 436.00 23.38 436.18 21.95 Z" />
<path fill="#ffffff" opacity="1.00" d=" M 430.16 68.07 C 429.83 66.77 431.76 64.89 433.05 65.15 C 432.95 66.68 431.88 68.32 430.16 68.07 Z" />
<path fill="#ffffff" opacity="1.00" d=" M 420.99 74.32 C 423.39 74.00 424.39 71.29 426.71 70.83 C 425.14 72.63 423.13 73.94 421.02 75.01 L 420.99 74.32 Z" />
<path fill="#ffffff" opacity="1.00" d=" M 490.98 72.43 L 492.19 71.64 C 490.83 74.70 490.86 78.02 490.99 81.30 C 489.59 82.62 489.84 84.56 489.98 86.29 C 488.70 87.56 488.76 89.35 488.92 91.02 L 488.37 90.89 C 488.37 89.04 488.22 87.19 488.09 85.35 L 489.83 85.92 C 489.54 84.08 489.27 82.25 488.99 80.42 L 490.60 80.55 C 490.71 77.84 490.82 75.14 490.98 72.43 Z" />
<path fill="#ffffff" opacity="1.00" d=" M 411.15 81.96 C 411.09 80.20 413.97 78.89 415.47 79.31 C 414.56 80.86 413.01 82.02 411.15 81.96 Z" />
<path fill="#ffffff" opacity="1.00" d=" M 318.98 80.01 C 335.66 80.01 352.33 79.97 369.00 80.02 L 368.99 80.89 C 359.98 80.48 350.96 80.96 341.95 80.53 C 334.35 80.59 326.70 80.04 319.13 80.95 L 318.98 80.01 Z" />
<path fill="#ffffff" opacity="1.00" d=" M 300.49 81.93 C 301.67 80.63 303.50 81.14 305.02 80.99 C 309.57 81.00 314.12 80.99 318.67 81.01 C 313.49 81.86 308.22 81.03 303.02 81.71 C 294.41 83.06 285.87 85.12 277.13 85.43 C 271.68 85.71 266.35 86.92 261.00 87.85 L 261.00 87.11 C 262.54 86.92 264.32 87.32 265.60 86.17 C 267.26 85.91 269.24 86.42 270.58 85.13 C 272.89 84.78 275.64 85.73 277.59 84.11 C 281.21 83.68 285.25 84.97 288.57 83.20 C 290.25 82.95 292.22 83.43 293.59 82.13 C 295.89 82.07 298.19 82.05 300.49 81.93 Z" />
<path fill="#ffffff" opacity="1.00" d=" M 190.64 90.06 C 195.18 89.93 199.73 90.01 204.27 90.02 C 206.81 92.16 210.38 90.50 213.37 91.09 C 215.90 91.87 217.90 93.71 220.47 94.34 C 221.71 94.99 223.11 95.06 224.47 95.23 C 225.81 95.93 227.15 96.62 228.49 97.33 C 229.75 98.27 231.45 98.37 232.61 97.15 C 233.10 97.10 234.08 96.98 234.57 96.93 C 233.27 97.70 231.91 98.36 230.57 99.05 C 228.00 97.66 225.46 96.16 222.59 95.50 C 219.71 94.76 217.05 93.42 214.31 92.30 C 210.81 90.89 206.97 91.42 203.34 91.96 L 203.91 90.53 C 199.48 90.46 195.06 90.29 190.64 90.06 Z" />
<path fill="#ffffff" opacity="1.00" d=" M 123.12 93.09 C 122.87 91.61 125.85 90.51 127.02 91.30 C 126.12 92.51 124.71 93.49 123.12 93.09 Z" />
<path fill="#ffffff" opacity="1.00" d=" M 112.93 102.12 C 114.87 98.39 117.84 95.47 121.67 93.71 C 118.90 96.10 116.07 98.45 113.96 101.47 C 113.70 101.63 113.19 101.96 112.93 102.12 Z" />
<path fill="#ffffff" opacity="1.00" d=" M 236.09 95.44 C 236.73 95.38 238.01 95.27 238.65 95.22 C 238.16 96.30 237.32 96.60 236.14 96.14 L 236.09 95.44 Z" />
<path fill="#ffffff" opacity="1.00" d=" M 508.58 99.13 C 512.53 99.08 516.47 99.08 520.42 99.12 C 522.87 100.89 526.20 99.66 529.02 100.01 L 528.87 100.99 C 515.94 98.94 502.83 101.03 489.82 100.35 L 488.47 100.18 C 494.64 99.75 500.83 100.17 507.01 99.96 C 507.40 99.75 508.19 99.33 508.58 99.13 Z" />
<path fill="#ffffff" opacity="1.00" d=" M 539.31 102.14 C 542.00 101.89 544.72 102.00 547.42 102.12 C 548.74 103.43 550.73 102.89 552.40 103.17 C 553.80 104.37 555.73 103.92 557.42 104.17 C 558.81 105.38 560.74 104.94 562.43 105.18 C 563.81 106.37 565.74 105.93 567.41 106.18 C 568.53 107.15 570.06 106.96 571.42 107.21 C 572.57 108.11 574.09 107.97 575.45 108.23 C 577.25 109.01 579.13 109.61 581.00 110.23 L 580.99 110.72 C 573.65 107.92 565.81 106.94 558.19 105.20 C 551.98 103.77 545.71 102.38 539.31 102.14 Z" />
<path fill="#ffffff" opacity="1.00" d=" M 581.46 110.92 C 582.19 111.09 583.65 111.45 584.37 111.63 C 585.42 112.20 586.47 112.79 587.55 113.34 C 589.49 113.90 591.66 114.40 592.43 116.55 C 593.56 119.69 592.85 123.13 592.90 126.40 C 592.56 127.03 591.90 128.30 591.57 128.94 C 593.37 129.00 595.18 129.04 596.99 129.06 L 596.99 129.92 C 594.81 129.72 592.63 129.59 590.47 129.29 C 592.62 125.71 593.30 121.31 592.02 117.31 C 591.00 114.40 587.52 114.02 585.14 112.72 C 583.90 112.14 582.68 111.51 581.46 110.92 Z" />
<path fill="#ffffff" opacity="1.00" d=" M 78.26 113.40 C 78.31 113.36 78.41 113.28 78.46 113.24 C 78.41 113.28 78.31 113.36 78.26 113.40 Z" />
<path fill="#ffffff" opacity="1.00" d=" M 77.36 120.23 C 78.56 120.30 78.99 121.71 78.57 122.69 C 78.01 122.75 76.90 122.86 76.34 122.92 C 76.19 121.91 76.54 121.01 77.36 120.23 Z" />
<path fill="#ffffff" opacity="1.00" d=" M 61.61 124.09 C 63.56 124.01 65.52 123.98 67.48 124.01 C 61.73 124.73 56.05 125.89 50.47 127.44 C 48.30 127.90 46.12 128.29 43.98 128.85 L 44.04 128.06 C 44.65 128.02 45.89 127.94 46.50 127.90 C 47.94 126.63 50.09 127.36 51.59 126.20 C 53.26 125.92 55.20 126.38 56.59 125.16 C 58.26 124.88 60.28 125.45 61.61 124.09 Z" />
<path fill="#ffffff" opacity="1.00" d=" M 24.57 135.66 C 25.08 135.43 26.08 134.97 26.58 134.74 C 25.21 135.77 23.91 136.95 23.08 138.49 C 22.34 138.79 21.60 139.09 20.87 139.39 C 19.11 140.28 17.52 141.45 15.97 142.65 C 15.99 142.34 16.02 141.71 16.03 141.39 C 19.22 140.07 21.52 137.27 24.57 135.66 Z" />
<path fill="#ffffff" opacity="1.00" d=" M 623.45 135.01 C 625.20 135.06 626.79 135.83 628.46 136.30 C 629.68 137.04 631.12 137.05 632.50 137.22 C 634.07 138.11 635.67 139.01 637.49 139.25 C 638.00 139.52 639.02 140.06 639.53 140.33 C 640.14 140.57 641.35 141.05 641.96 141.29 L 642.02 141.73 C 635.89 139.32 629.60 137.37 623.45 135.01 Z" />
<path fill="#ffffff" opacity="1.00" d=" M 15.80 155.17 C 17.23 156.78 18.66 158.39 19.84 160.20 C 18.33 158.70 16.26 157.39 15.80 155.17 Z" />
<path fill="#ffffff" opacity="1.00" d=" M 637.81 174.54 C 641.92 171.88 645.22 168.20 649.12 165.25 C 648.60 166.03 648.12 166.82 647.66 167.62 C 644.73 168.83 643.26 171.98 640.41 173.32 C 639.09 174.25 637.69 175.06 636.38 176.00 L 635.28 173.78 C 635.92 173.97 637.18 174.35 637.81 174.54 Z" />
<path fill="#ffffff" opacity="1.00" d=" M 69.00 177.98 C 82.88 180.29 96.81 182.25 110.62 184.95 C 109.28 184.97 107.94 184.96 106.60 184.94 C 105.01 183.37 102.59 184.18 100.60 183.85 C 98.61 182.32 95.92 183.21 93.62 182.87 C 91.63 181.32 88.91 182.20 86.59 181.85 C 84.90 180.44 82.57 181.12 80.57 180.85 C 79.21 179.58 77.26 180.08 75.59 179.84 C 73.73 178.34 71.19 179.23 69.01 178.96 L 69.00 177.98 Z" />
<path fill="#ffffff" opacity="1.00" d=" M 551.98 180.29 C 555.79 178.51 560.03 179.91 563.93 180.59 C 570.54 182.05 577.35 181.43 584.06 181.49 C 592.15 181.24 600.26 181.66 608.35 181.19 L 609.50 181.90 C 594.86 182.06 580.21 182.09 565.58 181.87 C 564.22 180.59 562.25 181.08 560.59 180.80 C 558.21 179.43 554.97 179.66 552.50 180.66 C 550.50 181.70 548.47 182.70 546.49 183.78 C 545.12 183.96 543.66 183.94 542.45 184.71 C 541.32 184.87 540.30 185.28 539.41 185.96 C 538.73 185.93 537.37 185.88 536.70 185.85 C 542.01 184.67 547.07 182.61 551.98 180.29 Z" />
<path fill="#ffffff" opacity="1.00" d=" M 144.96 184.67 C 154.40 184.68 163.59 181.90 172.99 181.56 C 176.33 182.60 178.92 185.17 181.68 187.23 C 178.48 186.28 176.36 183.62 173.56 181.98 C 172.16 182.10 170.49 181.66 169.42 182.87 C 166.46 183.31 163.01 182.11 160.42 183.87 C 158.11 184.23 155.35 183.27 153.42 184.89 C 146.77 185.23 140.08 184.69 133.46 185.18 L 132.42 185.90 C 125.95 186.09 119.47 185.98 113.00 185.97 L 113.07 185.21 C 123.72 186.31 134.32 184.41 144.96 184.67 Z" />
<path fill="#ffffff" opacity="1.00" d=" M 393.98 195.79 C 403.31 195.48 411.81 191.21 420.00 187.16 L 420.00 187.72 C 419.37 187.94 418.13 188.39 417.50 188.62 C 415.98 189.43 414.75 190.64 413.55 191.85 C 412.15 191.95 410.70 191.92 409.47 192.68 C 407.66 193.05 406.00 193.87 404.45 194.84 C 402.78 195.08 400.84 194.62 399.45 195.82 C 398.08 196.05 396.53 195.83 395.40 196.83 C 392.76 197.22 389.65 196.14 387.39 197.89 C 386.10 197.94 384.83 197.97 383.55 197.99 C 387.00 197.13 390.38 195.88 393.98 195.79 Z" />
<path fill="#ffffff" opacity="1.00" d=" M 438.00 188.14 C 447.25 189.81 456.60 190.88 465.94 191.99 C 486.37 194.31 506.80 191.07 526.97 188.08 L 527.00 188.97 C 524.83 189.23 522.22 188.29 520.42 189.88 C 518.42 190.16 516.08 189.41 514.42 190.86 C 512.10 191.17 509.44 190.35 507.43 191.81 C 505.74 192.08 503.75 191.56 502.41 192.88 C 497.81 193.43 492.63 191.87 488.41 193.88 C 485.13 193.95 481.86 193.95 478.58 193.89 C 477.39 192.56 475.54 193.11 474.01 192.98 C 470.20 193.00 466.40 192.94 462.60 192.87 C 460.31 191.13 457.22 192.24 454.58 191.88 C 452.94 190.39 450.57 191.14 448.58 190.85 C 446.60 189.30 443.89 190.21 441.58 189.86 C 440.51 189.15 439.32 188.80 438.00 188.81 L 438.00 188.14 Z" />
<path fill="#ffffff" opacity="1.00" d=" M 189.06 190.06 C 195.23 191.78 201.20 194.14 207.32 196.03 C 205.89 196.22 204.62 195.92 203.51 195.13 C 203.03 195.06 202.06 194.91 201.58 194.84 C 200.63 194.30 199.63 193.91 198.58 193.66 C 197.58 193.31 196.57 192.99 195.55 192.70 C 194.20 192.18 192.79 191.80 191.50 191.13 C 190.87 191.08 189.62 190.98 189.00 190.93 L 189.06 190.06 Z" />
<path fill="#ffffff" opacity="1.00" d=" M 344.02 202.76 C 355.06 201.91 366.06 200.67 377.00 199.01 L 376.96 199.98 C 374.80 200.25 372.19 199.28 370.41 200.89 C 367.78 201.30 364.70 200.20 362.42 201.86 C 360.42 202.14 358.07 201.42 356.41 202.87 C 352.47 203.38 347.98 201.93 344.41 203.88 C 335.27 204.07 326.12 203.99 316.97 203.98 C 315.43 204.12 313.59 203.57 312.40 204.89 C 308.13 205.56 303.30 203.90 299.41 205.88 C 293.47 206.07 287.52 206.03 281.59 205.92 C 279.69 204.22 276.89 205.22 274.59 204.86 C 274.18 204.65 273.34 204.25 272.93 204.04 C 267.15 203.92 261.36 204.05 255.58 203.86 C 252.98 202.11 249.55 203.36 246.61 202.89 C 244.77 201.29 242.14 202.23 239.95 201.97 L 240.20 200.93 C 251.69 203.07 263.44 203.44 275.09 203.90 C 283.35 205.65 291.98 206.77 300.32 204.84 C 304.90 204.31 309.56 205.00 314.10 203.91 C 324.04 203.02 334.11 204.36 344.02 202.76 Z" />
</g>
<g id="#9ddcf5ff">
<path fill="#9ddcf5" opacity="1.00" d=" M 452.63 13.15 C 452.68 13.19 452.78 13.28 452.83 13.32 C 452.78 13.28 452.68 13.19 452.63 13.15 Z" />
<path fill="#9ddcf5" opacity="1.00" d=" M 467.57 20.32 C 467.61 20.35 467.69 20.41 467.73 20.44 C 467.69 20.41 467.61 20.35 467.57 20.32 Z" />
<path fill="#9ddcf5" opacity="1.00" d=" M 134.09 88.39 C 134.76 88.32 136.10 88.18 136.77 88.10 C 136.19 89.08 135.30 89.42 134.10 89.13 L 134.09 88.39 Z" />
</g>
<g id="#a9e1f6ff">
<path fill="#a9e1f6" opacity="1.00" d=" M 454.00 14.34 L 454.79 13.79 L 455.84 14.12 L 456.05 14.99 C 455.53 14.83 454.51 14.51 454.00 14.34 Z" />
</g>
<g id="#9fddf5ff">
<path fill="#9fddf5" opacity="1.00" d=" M 459.61 16.27 C 459.65 16.29 459.73 16.33 459.76 16.35 C 459.73 16.33 459.65 16.29 459.61 16.27 Z" />
</g>
<g id="#c8ebf9ff">
<path fill="#c8ebf9" opacity="1.00" d=" M 461.53 17.27 C 461.58 17.30 461.67 17.35 461.71 17.37 C 461.67 17.35 461.58 17.30 461.53 17.27 Z" />
</g>
<g id="#ace2f6ff">
<path fill="#ace2f6" opacity="1.00" d=" M 463.10 18.29 C 463.54 18.25 464.43 18.19 464.87 18.16 L 465.06 19.03 C 464.57 18.84 463.59 18.47 463.10 18.29 Z" />
</g>
<g id="#a3dbf1fb">
<path fill="#a3dbf1" opacity="1.00" d=" M 439.08 25.25 C 439.33 25.67 439.85 26.53 440.11 26.96 L 439.25 26.95 C 439.21 26.53 439.12 25.67 439.08 25.25 Z" />
</g>
<g id="#b9e6f8ff">
<path fill="#b9e6f8" opacity="1.00" d=" M 473.44 25.36 C 473.52 25.40 473.69 25.48 473.78 25.52 C 473.69 25.48 473.52 25.40 473.44 25.36 Z" />
</g>
<g id="#90d7f3ff">
<path fill="#90d7f3" opacity="1.00" d=" M 475.01 27.17 C 476.29 26.96 478.19 28.82 477.83 30.13 C 476.22 30.17 474.82 28.82 475.01 27.17 Z" />
</g>
<g id="#95d9f4ff">
<path fill="#95d9f4" opacity="1.00" d=" M 477.96 31.16 C 479.35 30.84 481.44 33.06 480.69 34.45 C 479.36 33.80 477.89 32.82 477.96 31.16 Z" />
</g>
<g id="#4691bbc6">
<path fill="#4691bb" opacity="0.78" d=" M 468.66 36.25 C 470.95 38.03 473.18 40.03 474.16 42.85 C 472.61 41.11 470.89 39.53 469.42 37.72 L 468.66 36.25 Z" />
</g>
<g id="#164f7e84">
<path fill="#164f7e" opacity="0.52" d=" M 474.40 43.29 L 474.52 43.50 L 474.67 43.72 L 474.52 43.52 L 474.40 43.29 Z" />
</g>
<g id="#3994bfcd">
<path fill="#3994bf" opacity="0.80" d=" M 448.68 56.73 C 449.23 52.28 450.04 47.87 450.96 43.49 C 451.02 46.27 451.20 49.10 450.39 51.80 C 450.14 52.97 449.92 54.14 449.63 55.30 L 448.68 56.73 Z" />
</g>
<g id="#a8d2e3eb">
<path fill="#a8d2e3" opacity="0.92" d=" M 440.12 53.54 C 440.17 53.46 440.26 53.29 440.31 53.20 C 440.26 53.29 440.17 53.46 440.12 53.54 Z" />
</g>
<g id="#378dafbe">
<path fill="#378daf" opacity="0.75" d=" M 480.33 54.33 L 480.44 54.54 L 480.53 54.81 L 480.45 54.58 L 480.33 54.33 Z" />
</g>
<g id="#bebebeff">
<path fill="#bebebe" opacity="1.00" d=" M 0.00 55.13 L 0.56 55.02 L 0.61 55.58 L 0.00 55.74 L 0.00 55.13 Z" />
</g>
<g id="#94d6f0fd">
<path fill="#94d6f0" opacity="1.00" d=" M 439.30 55.04 L 440.17 55.05 C 439.90 55.47 439.36 56.32 439.09 56.74 C 439.15 56.32 439.25 55.47 439.30 55.04 Z" />
</g>
<g id="#458ba7b3">
<path fill="#458ba7" opacity="0.70" d=" M 481.20 56.92 C 482.26 58.48 482.56 60.38 481.98 62.19 C 480.47 60.82 480.56 58.68 481.20 56.92 Z" />
</g>
<g id="#91d8f4ff">
<path fill="#91d8f4" opacity="1.00" d=" M 435.31 62.36 C 434.94 60.88 436.19 58.04 437.95 58.17 C 438.13 60.04 436.84 61.51 435.31 62.36 Z" />
</g>
<g id="#ade2f6ff">
<path fill="#ade2f6" opacity="1.00" d=" M 417.26 77.42 C 417.30 77.39 417.39 77.32 417.44 77.29 C 417.39 77.32 417.30 77.39 417.26 77.42 Z" />
</g>
<g id="#2abdeaff">
<path fill="#2abdea" opacity="1.00" d=" M 318.67 81.01 L 319.13 80.95 C 326.70 80.04 334.35 80.59 341.95 80.53 C 350.96 80.96 359.98 80.48 368.99 80.89 C 369.43 80.96 370.32 81.10 370.76 81.17 C 374.80 82.73 379.16 82.83 383.41 83.28 C 390.54 83.95 397.68 84.76 404.68 86.30 C 406.34 88.58 408.75 90.05 411.30 91.17 C 408.47 92.83 405.17 92.77 402.04 92.23 C 382.18 89.12 362.03 89.78 342.01 88.96 C 328.16 88.71 314.31 89.43 300.49 90.27 C 289.03 92.05 277.32 92.31 266.09 95.40 C 259.86 97.02 253.43 98.42 247.82 101.70 C 245.60 102.94 243.53 104.47 241.12 105.32 C 237.36 105.93 233.84 104.11 230.36 103.00 C 235.05 101.69 240.16 101.16 244.24 98.26 C 246.57 96.74 248.47 94.69 250.27 92.58 C 253.27 91.79 256.59 91.43 259.06 89.37 C 259.22 89.05 259.52 88.41 259.67 88.09 L 261.00 87.85 C 266.35 86.92 271.68 85.71 277.13 85.43 C 285.87 85.12 294.41 83.06 303.02 81.71 C 308.22 81.03 313.49 81.86 318.67 81.01 M 251.90 96.65 C 255.38 97.12 258.81 96.42 261.94 94.87 C 261.12 93.73 260.70 91.82 258.96 91.89 C 255.91 91.97 253.10 93.85 251.90 96.65 Z" />
</g>
<g id="#85d9f3ff">
<path fill="#85d9f3" opacity="1.00" d=" M 370.76 81.17 C 373.49 80.93 376.24 80.98 378.98 81.00 L 379.07 82.02 C 382.37 81.99 385.68 82.00 388.99 82.00 L 389.06 83.01 C 391.70 83.00 394.34 83.00 396.99 83.00 L 397.05 84.00 C 399.36 84.00 401.67 84.00 403.99 84.00 L 404.08 85.22 C 405.68 84.96 407.21 84.44 408.75 83.90 C 407.69 85.15 406.22 85.86 404.68 86.30 C 397.68 84.76 390.54 83.95 383.41 83.28 C 379.16 82.83 374.80 82.73 370.76 81.17 Z" />
</g>
<g id="#b1e3f7ff">
<path fill="#b1e3f7" opacity="1.00" d=" M 146.46 86.03 C 149.64 85.96 152.82 86.01 156.00 86.00 L 156.01 87.00 C 151.33 87.00 146.65 87.27 142.00 87.84 L 142.00 87.06 C 143.48 86.80 145.47 87.57 146.46 86.03 Z" />
</g>
<g id="#beeaf9ff">
<path fill="#beeaf9" opacity="1.00" d=" M 158.12 87.10 C 158.57 87.13 159.46 87.18 159.91 87.21 L 159.98 88.10 C 159.52 87.85 158.59 87.35 158.12 87.10 Z" />
</g>
<g id="#9ee0f5ff">
<path fill="#9ee0f5" opacity="1.00" d=" M 161.64 88.12 C 161.68 88.29 161.75 88.62 161.79 88.79 L 161.26 88.63 L 161.64 88.12 Z" />
</g>
<g id="#ace3f7ff">
<path fill="#ace3f7" opacity="1.00" d=" M 258.12 88.34 C 258.51 88.28 259.28 88.15 259.67 88.09 C 259.52 88.41 259.22 89.05 259.06 89.37 L 258.25 89.18 L 258.12 88.34 Z" />
</g>
<g id="#91d7f3ff">
<path fill="#91d7f3" opacity="1.00" d=" M 128.01 90.63 C 128.90 89.59 130.58 88.54 131.97 89.05 C 131.56 90.80 129.65 91.07 128.15 91.11 L 128.01 90.63 Z" />
</g>
<g id="#2fbfeaff">
<path fill="#2fbfea" opacity="1.00" d=" M 136.38 95.19 C 143.99 90.39 153.75 93.64 161.26 88.63 L 161.79 88.79 L 162.46 88.98 C 165.21 89.88 168.13 90.07 171.02 90.02 C 177.34 89.91 183.67 89.97 190.00 90.04 L 190.64 90.06 C 195.06 90.29 199.48 90.46 203.91 90.53 L 203.34 91.96 C 206.97 91.42 210.81 90.89 214.31 92.30 C 217.05 93.42 219.71 94.76 222.59 95.50 C 223.96 97.93 225.44 100.31 227.02 102.62 C 218.16 101.08 209.15 100.71 200.28 99.19 C 193.91 98.02 187.39 98.76 181.00 97.82 C 175.68 97.10 170.31 97.55 164.98 97.64 C 159.20 97.81 153.75 95.30 147.98 95.47 C 144.42 95.41 140.95 96.29 137.47 96.93 C 137.20 96.49 136.65 95.62 136.38 95.19 Z" />
</g>
<g id="#76d5f2ff">
<path fill="#76d5f2" opacity="1.00" d=" M 162.46 88.98 C 171.64 89.02 180.82 88.99 190.00 89.00 L 190.00 90.04 C 183.67 89.97 177.34 89.91 171.02 90.02 C 168.13 90.07 165.21 89.88 162.46 88.98 Z" />
</g>
<g id="#7bcff0ff">
<path fill="#7bcff0" opacity="1.00" d=" M 254.52 89.59 C 255.70 88.91 256.94 88.78 258.25 89.18 L 259.06 89.37 C 256.59 91.43 253.27 91.79 250.27 92.58 C 245.46 93.26 241.15 95.51 237.22 98.24 C 235.29 99.75 232.81 99.89 230.57 99.05 C 231.91 98.36 233.27 97.70 234.57 96.93 L 235.47 95.98 L 236.14 96.14 C 237.32 96.60 238.16 96.30 238.65 95.22 L 239.15 94.00 C 239.86 94.00 241.28 94.00 242.00 94.00 C 242.00 93.50 242.00 92.50 242.00 92.00 C 242.74 92.00 244.21 92.00 244.95 92.00 L 245.01 90.96 C 246.67 90.98 248.34 90.96 250.01 91.09 C 251.06 91.28 252.03 91.06 252.90 90.42 C 253.31 90.21 254.12 89.80 254.52 89.59 Z" />
</g>
<g id="#a6ddf1ff">
<path fill="#a6ddf1" opacity="1.00" d=" M 250.04 90.32 L 250.96 89.76 C 251.45 89.92 252.42 90.25 252.90 90.42 C 252.03 91.06 251.06 91.28 250.01 91.09 L 250.04 90.32 Z" />
</g>
<g id="#07b8eaff">
<path fill="#07b8ea" opacity="1.00" d=" M 251.90 96.65 C 253.10 93.85 255.91 91.97 258.96 91.89 C 260.70 91.82 261.12 93.73 261.94 94.87 C 258.81 96.42 255.38 97.12 251.90 96.65 Z" />
</g>
<g id="#4cc3ecff">
<path fill="#4cc3ec" opacity="1.00" d=" M 237.22 98.24 C 241.15 95.51 245.46 93.26 250.27 92.58 C 248.47 94.69 246.57 96.74 244.24 98.26 C 240.16 101.16 235.05 101.69 230.36 103.00 C 229.24 102.88 228.13 102.76 227.02 102.62 C 225.44 100.31 223.96 97.93 222.59 95.50 C 225.46 96.16 228.00 97.66 230.57 99.05 C 232.81 99.89 235.29 99.75 237.22 98.24 Z" />
</g>
<g id="#8fd7f3ff">
<path fill="#8fd7f3" opacity="1.00" d=" M 484.96 99.00 C 485.56 96.53 486.64 94.21 487.86 91.99 C 487.92 92.74 488.02 94.23 488.07 94.98 L 486.99 95.06 C 486.99 95.54 487.00 96.49 487.01 96.97 L 486.00 97.07 C 486.00 97.55 486.00 98.52 486.00 99.00 L 484.96 99.00 Z" />
</g>
<g id="#2fbeebff">
<path fill="#2fbeeb" opacity="1.00" d=" M 113.96 101.47 C 117.27 101.66 120.59 101.96 123.91 101.91 C 120.47 103.66 117.55 106.23 114.22 108.15 C 111.75 108.91 109.04 108.56 106.64 109.58 C 104.30 110.68 102.48 112.57 100.52 114.21 C 99.34 114.73 98.14 115.58 96.78 115.35 C 95.69 114.24 94.80 112.96 93.86 111.74 C 92.60 111.66 91.35 111.58 90.10 111.51 C 93.77 110.06 97.39 108.45 101.19 107.37 C 104.27 106.48 107.49 105.77 110.18 103.94 C 111.08 103.37 111.97 102.79 112.84 102.18 L 112.93 102.12 C 113.19 101.96 113.70 101.63 113.96 101.47 Z" />
</g>
<g id="#2bbdeaff">
<path fill="#2bbdea" opacity="1.00" d=" M 472.65 101.41 C 478.39 101.22 484.19 101.72 489.82 100.35 C 502.83 101.03 515.94 98.94 528.87 100.99 L 529.22 101.07 C 532.38 102.13 535.72 102.35 539.03 102.14 L 539.31 102.14 C 545.71 102.38 551.98 103.77 558.19 105.20 C 565.81 106.94 573.65 107.92 580.99 110.72 L 581.46 110.92 C 582.68 111.51 583.90 112.14 585.14 112.72 C 585.56 115.01 586.78 116.96 587.98 118.90 C 589.12 120.70 588.46 122.94 588.39 124.92 C 587.87 123.77 587.36 122.61 586.87 121.46 C 585.49 120.33 584.12 119.18 582.78 118.02 C 574.09 113.76 564.30 113.03 555.02 110.76 C 541.29 107.30 527.07 107.66 513.02 107.32 C 506.69 107.41 500.42 108.96 494.06 108.24 C 486.00 107.22 477.87 107.40 469.77 107.50 C 470.41 105.33 471.23 103.20 472.65 101.41 Z" />
</g>
<g id="#91ddf4ff">
<path fill="#91ddf4" opacity="1.00" d=" M 529.22 101.07 C 532.47 100.94 535.74 101.01 539.00 101.00 L 539.03 102.14 C 535.72 102.35 532.38 102.13 529.22 101.07 Z" />
</g>
<g id="#a3def4ff">
<path fill="#a3def4" opacity="1.00" d=" M 110.02 101.92 C 110.73 101.98 112.14 102.11 112.84 102.18 C 111.97 102.79 111.08 103.37 110.18 103.94 C 104.86 104.63 99.59 105.68 94.45 107.22 L 93.36 107.13 L 92.61 106.08 C 93.33 106.04 94.78 105.95 95.50 105.91 C 96.78 104.37 99.17 105.60 100.46 104.10 C 102.11 103.78 104.29 104.62 105.46 103.03 C 106.95 103.00 108.44 103.01 109.94 103.02 L 110.02 101.92 Z" />
</g>
<g id="#5cc6eeff">
<path fill="#5cc6ee" opacity="1.00" d=" M 94.45 107.22 C 99.59 105.68 104.86 104.63 110.18 103.94 C 107.49 105.77 104.27 106.48 101.19 107.37 C 97.39 108.45 93.77 110.06 90.10 111.51 C 91.35 111.58 92.60 111.66 93.86 111.74 C 94.80 112.96 95.69 114.24 96.78 115.35 C 98.14 115.58 99.34 114.73 100.52 114.21 C 100.14 116.50 99.74 118.79 99.36 121.09 C 100.32 122.54 101.27 124.00 102.22 125.47 C 101.02 125.71 99.80 125.93 98.59 126.12 C 95.16 124.60 91.52 123.63 87.79 123.28 C 88.57 123.18 90.14 123.00 90.92 122.90 C 89.03 120.97 85.53 119.36 86.20 116.13 C 86.79 111.69 90.88 109.20 94.45 107.22 Z" />
</g>
<g id="#79ccefff">
<path fill="#79ccef" opacity="1.00" d=" M 90.02 106.90 C 90.85 106.96 92.53 107.07 93.36 107.13 L 94.45 107.22 C 90.88 109.20 86.79 111.69 86.20 116.13 C 85.53 119.36 89.03 120.97 90.92 122.90 C 90.14 123.00 88.57 123.18 87.79 123.28 C 84.56 122.93 80.18 122.56 79.27 118.72 C 78.26 116.44 80.44 114.79 81.66 113.19 C 80.86 113.20 79.26 113.22 78.46 113.24 L 79.09 112.25 C 80.28 111.77 81.44 111.22 82.61 110.70 C 83.19 110.45 84.35 109.96 84.93 109.71 L 85.03 109.00 C 85.76 109.00 87.21 109.00 87.94 109.00 L 88.02 108.00 C 88.50 108.00 89.47 108.00 89.95 108.00 L 90.02 106.90 Z" />
</g>
<g id="#46c0ebff">
<path fill="#46c0eb" opacity="1.00" d=" M 78.46 113.24 C 79.26 113.22 80.86 113.20 81.66 113.19 C 80.44 114.79 78.26 116.44 79.27 118.72 C 80.18 122.56 84.56 122.93 87.79 123.28 C 91.52 123.63 95.16 124.60 98.59 126.12 C 81.16 128.45 63.53 131.76 47.63 139.57 C 42.27 139.03 36.80 138.66 31.73 136.69 C 37.34 132.33 44.74 131.57 50.47 127.44 C 56.05 125.89 61.73 124.73 67.48 124.01 C 68.65 123.94 69.82 123.95 70.99 124.05 C 71.46 123.83 72.41 123.37 72.88 123.15 C 73.74 123.09 75.47 122.98 76.34 122.92 C 76.90 122.86 78.01 122.75 78.57 122.69 C 78.99 121.71 78.56 120.30 77.36 120.23 L 76.00 119.87 C 76.00 118.31 76.00 116.76 76.00 115.21 C 76.56 114.76 77.69 113.86 78.26 113.40 C 78.31 113.36 78.41 113.28 78.46 113.24 Z" />
</g>
<g id="#bce7faff">
<path fill="#bce7fa" opacity="1.00" d=" M 71.10 123.18 C 71.54 123.17 72.43 123.15 72.88 123.15 C 72.41 123.37 71.46 123.83 70.99 124.05 L 71.10 123.18 Z" />
</g>
<g id="#63c8ecff">
<path fill="#63c8ec" opacity="1.00" d=" M 43.98 128.85 C 46.12 128.29 48.30 127.90 50.47 127.44 C 44.74 131.57 37.34 132.33 31.73 136.69 C 36.80 138.66 42.27 139.03 47.63 139.57 C 44.43 140.76 41.44 142.48 38.99 144.88 C 38.55 144.86 37.68 144.82 37.25 144.80 C 37.09 145.21 36.77 146.02 36.61 146.43 C 33.33 144.09 29.44 142.86 25.39 143.27 C 25.44 141.99 25.49 140.72 25.54 139.44 C 23.77 139.79 22.00 140.13 20.23 140.46 L 20.87 139.39 C 21.60 139.09 22.34 138.79 23.08 138.49 C 23.91 136.95 25.21 135.77 26.58 134.74 L 27.32 134.17 C 27.76 134.01 28.64 133.69 29.08 133.54 C 29.21 133.48 29.48 133.37 29.62 133.32 C 30.23 133.13 31.45 132.76 32.06 132.57 C 32.20 132.51 32.49 132.38 32.63 132.32 C 33.24 132.14 34.45 131.77 35.05 131.58 C 35.20 131.46 35.50 131.23 35.65 131.12 C 36.28 131.10 37.53 131.06 38.15 131.04 C 39.97 131.24 41.60 130.37 43.03 129.35 L 43.98 128.85 Z" />
</g>
<g id="#2cbdeaff">
<path fill="#2cbdea" opacity="1.00" d=" M 582.50 132.23 C 584.45 131.06 586.47 129.85 587.80 127.93 C 588.47 128.27 589.80 128.95 590.47 129.29 C 592.63 129.59 594.81 129.72 596.99 129.92 C 597.52 129.97 598.56 130.06 599.09 130.11 C 599.73 131.06 600.66 131.37 601.89 131.04 C 602.43 131.12 603.52 131.27 604.06 131.35 C 605.25 131.93 606.57 132.36 607.93 132.08 C 608.73 132.09 610.34 132.10 611.14 132.11 C 611.61 132.35 612.54 132.84 613.01 133.08 C 613.57 133.07 614.70 133.05 615.26 133.04 C 615.78 134.08 616.66 134.43 617.90 134.09 C 618.71 134.09 620.33 134.11 621.14 134.12 C 621.61 134.35 622.55 134.80 623.02 135.03 L 623.45 135.01 C 629.60 137.37 635.89 139.32 642.02 141.73 C 642.66 141.85 643.93 142.10 644.57 142.22 C 644.63 142.26 644.74 142.35 644.80 142.39 L 646.05 143.34 C 646.55 143.53 647.56 143.91 648.06 144.10 L 649.44 144.05 C 649.55 144.13 649.77 144.28 649.88 144.36 L 651.42 145.36 C 651.48 145.41 651.59 145.53 651.65 145.58 L 652.32 146.53 C 652.63 146.95 653.27 147.79 653.59 148.20 C 653.65 148.28 653.75 148.42 653.80 148.50 L 654.03 149.99 C 654.20 151.23 654.40 152.47 654.58 153.71 C 653.54 154.51 652.50 155.31 651.47 156.13 C 651.48 158.92 651.04 161.69 650.06 164.31 L 649.95 164.65 L 649.12 165.25 C 645.22 168.20 641.92 171.88 637.81 174.54 C 637.18 174.35 635.92 173.97 635.28 173.78 L 636.38 176.00 L 634.88 175.96 C 633.32 175.76 631.57 176.30 630.92 177.84 C 630.44 177.88 629.48 177.95 629.01 177.99 C 622.34 178.92 615.42 178.81 609.00 180.99 L 608.35 181.19 C 600.26 181.66 592.15 181.24 584.06 181.49 C 577.35 181.43 570.54 182.05 563.93 180.59 C 560.03 179.91 555.79 178.51 551.98 180.29 C 547.07 182.61 542.01 184.67 536.70 185.85 L 536.00 185.96 C 533.24 186.28 530.52 186.87 527.92 187.84 C 527.68 187.90 527.21 188.02 526.97 188.08 C 506.80 191.07 486.37 194.31 465.94 191.99 C 456.60 190.88 447.25 189.81 438.00 188.14 L 436.42 187.86 C 436.36 187.81 436.25 187.72 436.19 187.67 L 434.95 186.61 C 434.45 186.46 433.44 186.15 432.94 186.00 L 432.29 186.17 C 431.96 185.78 431.30 184.99 430.97 184.59 C 430.48 184.47 429.48 184.21 428.98 184.08 L 427.77 184.55 C 427.69 184.58 427.52 184.63 427.44 184.66 C 426.94 184.82 425.93 185.13 425.42 185.28 C 424.77 185.60 423.48 186.22 422.83 186.54 C 422.73 186.58 422.54 186.68 422.44 186.72 C 421.83 186.83 420.61 187.05 420.00 187.16 C 411.81 191.21 403.31 195.48 393.98 195.79 C 390.38 195.88 387.00 197.13 383.55 197.99 L 382.94 197.95 C 381.28 197.61 379.61 197.95 378.10 198.64 L 377.00 199.01 C 366.06 200.67 355.06 201.91 344.02 202.76 C 334.11 204.36 324.04 203.02 314.10 203.91 C 309.56 205.00 304.90 204.31 300.32 204.84 C 291.98 206.77 283.35 205.65 275.09 203.90 C 263.44 203.44 251.69 203.07 240.20 200.93 L 239.95 200.88 C 235.38 199.75 230.66 199.59 226.00 199.11 C 225.23 198.98 223.68 198.72 222.91 198.59 C 221.69 198.03 220.36 197.73 219.02 197.92 L 217.92 197.69 C 217.07 196.98 216.11 196.73 215.04 196.93 C 214.24 196.91 212.65 196.89 211.86 196.88 C 211.39 196.65 210.45 196.19 209.98 195.96 C 209.31 195.98 207.99 196.01 207.32 196.03 C 201.20 194.14 195.23 191.78 189.06 190.06 L 188.19 189.80 C 187.47 188.26 185.67 187.91 184.13 187.95 L 182.46 187.87 C 182.40 187.81 182.27 187.71 182.21 187.66 L 181.68 187.23 C 178.92 185.17 176.33 182.60 172.99 181.56 C 163.59 181.90 154.40 184.68 144.96 184.67 C 134.32 184.41 123.72 186.31 113.07 185.21 C 112.46 185.14 111.23 185.01 110.62 184.95 C 96.81 182.25 82.88 180.29 69.00 177.98 L 67.94 177.62 C 66.73 177.05 65.40 176.67 64.05 176.93 C 63.50 176.92 62.41 176.90 61.86 176.89 C 61.39 176.66 60.45 176.21 59.97 175.98 C 59.46 175.90 58.42 175.74 57.90 175.66 C 57.04 174.97 56.08 174.73 55.02 174.93 C 54.48 174.92 53.39 174.89 52.85 174.88 C 52.38 174.65 51.44 174.19 50.98 173.96 C 50.44 173.94 49.38 173.91 48.85 173.89 C 48.38 173.64 47.44 173.15 46.97 172.91 L 45.96 172.76 C 44.89 171.20 43.01 170.16 41.15 171.07 L 40.84 170.92 C 38.34 169.67 35.75 168.56 32.99 168.03 L 31.51 167.71 C 31.43 167.68 31.27 167.60 31.19 167.56 L 29.49 166.73 C 29.43 166.70 29.32 166.64 29.26 166.61 L 27.50 165.69 C 27.45 165.66 27.36 165.61 27.31 165.58 C 26.87 165.27 25.97 164.65 25.53 164.34 L 24.50 163.67 C 24.44 163.64 24.34 163.57 24.29 163.53 C 23.60 163.08 22.23 162.16 21.54 161.70 C 21.48 161.66 21.34 161.57 21.28 161.53 L 20.31 160.90 L 19.84 160.20 C 18.66 158.39 17.23 156.78 15.80 155.17 C 15.48 154.75 14.83 153.92 14.51 153.51 C 13.59 150.99 14.05 148.26 14.13 145.65 C 14.24 145.50 14.45 145.21 14.55 145.07 C 14.71 144.62 15.02 143.71 15.18 143.26 L 15.97 142.65 C 17.52 141.45 19.11 140.28 20.87 139.39 L 20.23 140.46 C 18.33 143.65 15.31 147.15 16.86 151.11 C 19.46 157.56 25.43 161.91 31.40 165.06 C 31.74 163.28 31.19 160.99 32.80 159.71 C 35.98 161.04 39.05 162.63 42.31 163.76 C 42.76 164.70 43.21 165.65 43.66 166.60 C 45.55 166.19 47.43 165.77 49.31 165.36 C 52.55 166.79 55.69 168.58 59.16 169.36 C 63.57 169.68 68.00 169.91 72.33 170.90 C 82.48 173.13 92.77 174.61 103.04 176.17 C 115.84 178.93 129.01 177.21 141.98 177.42 C 150.26 177.72 158.30 175.08 166.57 175.48 C 169.25 177.65 172.64 178.21 175.98 178.48 C 180.82 178.67 183.83 183.16 188.30 184.47 C 195.35 186.94 202.41 189.39 209.59 191.45 C 223.94 195.22 238.84 195.99 253.41 198.53 C 253.59 197.91 253.94 196.68 254.12 196.06 C 263.07 195.94 272.10 196.31 280.88 198.15 C 293.24 198.63 305.64 198.27 318.02 198.37 C 325.11 198.50 332.08 197.04 339.06 196.05 C 344.35 195.14 349.72 196.85 355.00 195.72 C 366.23 193.20 377.69 191.83 388.95 189.50 C 395.68 189.70 401.47 185.95 407.85 184.53 C 412.16 183.44 415.63 180.46 419.72 178.82 C 421.68 178.93 423.66 179.10 425.63 179.27 C 425.87 178.75 426.35 177.71 426.59 177.18 C 427.58 177.39 428.57 177.61 429.56 177.84 C 432.95 179.26 436.19 181.12 439.84 181.84 C 448.25 183.32 456.73 184.27 465.20 185.39 C 466.08 186.63 467.37 187.35 468.93 187.13 C 475.61 187.12 482.28 187.18 488.96 187.11 C 496.97 186.25 504.96 185.23 512.92 183.94 C 520.22 183.14 527.51 181.97 534.52 179.73 C 537.83 177.38 541.05 174.85 545.00 173.59 C 546.68 174.04 548.38 174.50 550.07 174.98 C 550.55 174.81 551.50 174.48 551.98 174.32 C 559.53 176.02 567.21 177.53 574.99 177.19 C 583.33 176.87 591.77 177.88 600.03 176.33 C 610.06 175.84 620.26 175.23 629.74 171.62 C 635.72 169.94 640.54 165.82 644.61 161.30 C 646.08 159.81 647.56 158.34 649.05 156.87 C 649.03 155.33 649.01 153.79 649.00 152.25 C 646.35 150.17 643.93 147.75 641.02 146.03 C 637.54 143.98 633.49 143.32 629.66 142.24 C 622.80 140.36 615.99 138.24 608.95 137.11 C 600.15 135.40 591.09 134.86 582.50 132.23 Z" />
</g>
<g id="#a1def3ff">
<path fill="#a1def3" opacity="1.00" d=" M 38.15 131.04 C 38.16 129.31 41.62 128.27 43.03 129.35 C 41.60 130.37 39.97 131.24 38.15 131.04 Z" />
</g>
<g id="#b2e7f8ff">
<path fill="#b2e7f8" opacity="1.00" d=" M 599.09 130.11 C 599.78 130.17 601.17 130.28 601.87 130.34 L 601.89 131.04 C 600.66 131.37 599.73 131.06 599.09 130.11 Z" />
</g>
<g id="#c6eaf3ff">
<path fill="#c6eaf3" opacity="1.00" d=" M 35.05 131.58 C 35.20 131.46 35.50 131.23 35.65 131.12 C 35.50 131.23 35.20 131.46 35.05 131.58 Z" />
</g>
<g id="#8ddcf3ff">
<path fill="#8ddcf3" opacity="1.00" d=" M 604.06 131.35 C 605.41 130.41 606.73 130.44 608.00 131.45 L 607.93 132.08 C 606.57 132.36 605.25 131.93 604.06 131.35 Z" />
</g>
<g id="#c5eaf8ff">
<path fill="#c5eaf8" opacity="1.00" d=" M 32.06 132.57 C 32.20 132.51 32.49 132.38 32.63 132.32 C 32.49 132.38 32.20 132.51 32.06 132.57 Z" />
</g>
<g id="#a1e2f6ff">
<path fill="#a1e2f6" opacity="1.00" d=" M 611.14 132.11 C 611.59 132.13 612.48 132.17 612.92 132.20 L 613.01 133.08 C 612.54 132.84 611.61 132.35 611.14 132.11 Z" />
</g>
<g id="#cbeef9ff">
<path fill="#cbeef9" opacity="1.00" d=" M 29.08 133.54 C 29.21 133.48 29.48 133.37 29.62 133.32 C 29.48 133.37 29.21 133.48 29.08 133.54 Z" />
</g>
<g id="#84d9f2ff">
<path fill="#84d9f2" opacity="1.00" d=" M 615.26 133.04 C 615.93 133.12 617.25 133.29 617.91 133.37 L 617.90 134.09 C 616.66 134.43 615.78 134.08 615.26 133.04 Z" />
</g>
<g id="#a1e2f5ff">
<path fill="#a1e2f5" opacity="1.00" d=" M 621.14 134.12 C 621.59 134.13 622.48 134.15 622.92 134.16 L 623.02 135.03 C 622.55 134.80 621.61 134.35 621.14 134.12 Z" />
</g>
<g id="#76caeeff">
<path fill="#76caee" opacity="1.00" d=" M 20.23 140.46 C 22.00 140.13 23.77 139.79 25.54 139.44 C 25.49 140.72 25.44 141.99 25.39 143.27 C 29.44 142.86 33.33 144.09 36.61 146.43 C 36.77 146.02 37.09 145.21 37.25 144.80 C 37.68 144.82 38.55 144.86 38.99 144.88 C 38.12 146.85 37.13 148.81 36.79 150.96 C 38.07 157.56 43.69 162.26 49.31 165.36 C 47.43 165.77 45.55 166.19 43.66 166.60 C 43.21 165.65 42.76 164.70 42.31 163.76 C 39.05 162.63 35.98 161.04 32.80 159.71 C 31.19 160.99 31.74 163.28 31.40 165.06 C 25.43 161.91 19.46 157.56 16.86 151.11 C 15.31 147.15 18.33 143.65 20.23 140.46 Z" />
</g>
<g id="#9ae0f5ff">
<path fill="#9ae0f5" opacity="1.00" d=" M 644.57 142.22 C 644.63 142.26 644.74 142.35 644.80 142.39 C 644.74 142.35 644.63 142.26 644.57 142.22 Z" />
</g>
<g id="#8fddf4ff">
<path fill="#8fddf4" opacity="1.00" d=" M 646.05 143.34 L 646.86 142.81 L 647.89 143.20 L 648.06 144.10 C 647.56 143.91 646.55 143.53 646.05 143.34 Z" />
</g>
<g id="#9de0f6ff">
<path fill="#9de0f6" opacity="1.00" d=" M 649.44 144.05 C 649.55 144.13 649.77 144.28 649.88 144.36 C 649.77 144.28 649.55 144.13 649.44 144.05 Z" />
</g>
<g id="#8edffbff">
<path fill="#8edffb" opacity="1.00" d=" M 14.13 145.65 C 14.24 145.50 14.45 145.21 14.55 145.07 C 14.45 145.21 14.24 145.50 14.13 145.65 Z" />
</g>
<g id="#c2ecf9ff">
<path fill="#c2ecf9" opacity="1.00" d=" M 651.42 145.36 C 651.48 145.41 651.59 145.53 651.65 145.58 C 651.59 145.53 651.48 145.41 651.42 145.36 Z" />
</g>
<g id="#aae4f6ff">
<path fill="#aae4f6" opacity="1.00" d=" M 653.59 148.20 C 653.65 148.28 653.75 148.42 653.80 148.50 C 653.75 148.42 653.65 148.28 653.59 148.20 Z" />
</g>
<g id="#77c9efff">
<path fill="#77c9ef" opacity="1.00" d=" M 654.03 149.99 L 654.80 150.00 C 656.04 152.37 656.18 154.99 655.99 157.61 C 655.03 158.51 654.01 159.43 653.75 160.79 C 652.54 162.00 651.32 163.18 650.06 164.31 C 651.04 161.69 651.48 158.92 651.47 156.13 C 652.50 155.31 653.54 154.51 654.58 153.71 C 654.40 152.47 654.20 151.23 654.03 149.99 Z" />
</g>
<g id="#beecf7ff">
<path fill="#beecf7" opacity="1.00" d=" M 21.28 161.53 C 21.34 161.57 21.48 161.66 21.54 161.70 C 21.48 161.66 21.34 161.57 21.28 161.53 Z" />
</g>
<g id="#9ee4f6ff">
<path fill="#9ee4f6" opacity="1.00" d=" M 24.29 163.53 C 24.34 163.57 24.44 163.64 24.50 163.67 C 24.44 163.64 24.34 163.57 24.29 163.53 Z" />
</g>
<g id="#bde9f7ff">
<path fill="#bde9f7" opacity="1.00" d=" M 27.31 165.58 C 27.36 165.61 27.45 165.66 27.50 165.69 C 27.45 165.66 27.36 165.61 27.31 165.58 Z" />
</g>
<g id="#c2ecf7ff">
<path fill="#c2ecf7" opacity="1.00" d=" M 29.26 166.61 C 29.32 166.64 29.43 166.70 29.49 166.73 C 29.43 166.70 29.32 166.64 29.26 166.61 Z" />
</g>
<g id="#bcecf8ff">
<path fill="#bcecf8" opacity="1.00" d=" M 31.19 167.56 C 31.27 167.60 31.43 167.68 31.51 167.71 C 31.43 167.68 31.27 167.60 31.19 167.56 Z" />
</g>
<g id="#8edcf2ff">
<path fill="#8edcf2" opacity="1.00" d=" M 32.99 168.03 C 35.75 168.56 38.34 169.67 40.84 170.92 C 39.89 170.95 37.98 171.01 37.03 171.04 L 36.95 170.23 C 35.62 169.78 34.33 169.24 33.00 168.78 L 32.99 168.03 Z" />
</g>
<g id="#80d8f2ff">
<path fill="#80d8f2" opacity="1.00" d=" M 41.15 171.07 C 43.01 170.16 44.89 171.20 45.96 172.76 C 44.37 173.25 42.50 172.20 41.08 171.53 L 41.15 171.07 Z" />
</g>
<g id="#a4e2f5ff">
<path fill="#a4e2f5" opacity="1.00" d=" M 46.97 172.91 C 47.44 173.15 48.38 173.64 48.85 173.89 C 48.40 173.87 47.51 173.82 47.06 173.79 L 46.97 172.91 Z" />
</g>
<g id="#a1e3f4ff">
<path fill="#a1e3f4" opacity="1.00" d=" M 50.98 173.96 C 51.44 174.19 52.38 174.65 52.85 174.88 C 52.41 174.87 51.52 174.84 51.08 174.83 L 50.98 173.96 Z" />
</g>
<g id="#4dbfecff">
<path fill="#4dbfec" opacity="1.00" d=" M 166.57 175.48 C 170.33 174.70 174.18 173.48 178.05 174.34 C 185.47 176.29 192.01 180.38 198.70 183.98 C 198.05 184.28 196.74 184.89 196.09 185.19 C 193.59 184.58 190.68 182.40 188.30 184.47 C 183.83 183.16 180.82 178.67 175.98 178.48 C 172.64 178.21 169.25 177.65 166.57 175.48 Z" />
</g>
<g id="#91def1ff">
<path fill="#91def1" opacity="1.00" d=" M 55.02 174.93 C 56.08 174.73 57.04 174.97 57.90 175.66 C 57.19 175.67 55.76 175.69 55.05 175.70 L 55.02 174.93 Z" />
</g>
<g id="#83d4f2ff">
<path fill="#83d4f2" opacity="1.00" d=" M 419.72 178.82 C 421.81 177.65 423.57 175.65 426.00 175.22 C 427.78 174.90 428.52 176.81 429.56 177.84 C 428.57 177.61 427.58 177.39 426.59 177.18 C 426.35 177.71 425.87 178.75 425.63 179.27 C 423.66 179.10 421.68 178.93 419.72 178.82 Z" />
</g>
<g id="#a0e1f4ff">
<path fill="#a0e1f4" opacity="1.00" d=" M 59.97 175.98 C 60.45 176.21 61.39 176.66 61.86 176.89 C 61.42 176.88 60.52 176.86 60.08 176.85 L 59.97 175.98 Z" />
</g>
<g id="#92ddf4ff">
<path fill="#92ddf4" opacity="1.00" d=" M 630.92 177.84 C 631.57 176.30 633.32 175.76 634.88 175.96 C 635.00 177.43 632.16 178.42 630.92 177.84 Z" />
</g>
<g id="#98dff5ff">
<path fill="#98dff5" opacity="1.00" d=" M 64.05 176.93 C 65.40 176.67 66.73 177.05 67.94 177.62 C 67.03 178.58 63.78 178.77 64.05 176.93 Z" />
</g>
<g id="#a6e4f6ff">
<path fill="#a6e4f6" opacity="1.00" d=" M 609.00 180.99 C 615.42 178.81 622.34 178.92 629.01 177.99 L 629.00 178.99 C 627.82 179.00 626.65 179.02 625.49 179.05 C 623.41 181.01 620.09 179.58 617.49 180.04 C 615.30 182.10 611.72 180.51 609.00 180.99 Z" />
</g>
<g id="#75cbefff">
<path fill="#75cbef" opacity="1.00" d=" M 188.30 184.47 C 190.68 182.40 193.59 184.58 196.09 185.19 C 196.74 184.89 198.05 184.28 198.70 183.98 C 216.49 190.58 235.22 194.53 254.12 196.06 C 253.94 196.68 253.59 197.91 253.41 198.53 C 238.84 195.99 223.94 195.22 209.59 191.45 C 202.41 189.39 195.35 186.94 188.30 184.47 Z" />
</g>
<g id="#b9e6f7ff">
<path fill="#b9e6f7" opacity="1.00" d=" M 427.44 184.66 C 427.52 184.63 427.69 184.58 427.77 184.55 C 427.69 184.58 427.52 184.63 427.44 184.66 Z" />
</g>
<g id="#94def4ff">
<path fill="#94def4" opacity="1.00" d=" M 428.98 184.08 C 429.48 184.21 430.48 184.47 430.97 184.59 C 430.54 184.67 429.67 184.82 429.24 184.89 L 428.98 184.08 Z" />
</g>
<g id="#bfedf5ff">
<path fill="#bfedf5" opacity="1.00" d=" M 422.44 186.72 C 422.54 186.68 422.73 186.58 422.83 186.54 C 422.73 186.58 422.54 186.68 422.44 186.72 Z" />
</g>
<g id="#9de1f6ff">
<path fill="#9de1f6" opacity="1.00" d=" M 432.94 186.00 C 433.44 186.15 434.45 186.46 434.95 186.61 C 434.50 186.67 433.60 186.79 433.15 186.85 L 432.94 186.00 Z" />
</g>
<g id="#7fd5f1ff">
<path fill="#7fd5f1" opacity="1.00" d=" M 527.92 187.84 C 530.52 186.87 533.24 186.28 536.00 185.96 L 536.00 187.00 C 534.68 187.00 533.37 187.00 532.06 187.00 L 531.98 188.08 C 530.96 188.02 528.93 187.90 527.92 187.84 Z" />
</g>
<g id="#9ce0f4ff">
<path fill="#9ce0f4" opacity="1.00" d=" M 182.21 187.66 C 182.27 187.71 182.40 187.81 182.46 187.87 C 182.40 187.81 182.27 187.71 182.21 187.66 Z" />
</g>
<g id="#8cdbf4ff">
<path fill="#8cdbf4" opacity="1.00" d=" M 436.19 187.67 C 436.25 187.72 436.36 187.81 436.42 187.86 C 436.36 187.81 436.25 187.72 436.19 187.67 Z" />
</g>
<g id="#8ddcf4ff">
<path fill="#8ddcf4" opacity="1.00" d=" M 184.13 187.95 C 185.67 187.91 187.47 188.26 188.19 189.80 C 186.93 190.47 184.02 189.44 184.13 187.95 Z" />
<path fill="#8ddcf4" opacity="1.00" d=" M 209.98 195.96 C 210.45 196.19 211.39 196.65 211.86 196.88 C 211.41 196.87 210.53 196.85 210.08 196.84 L 209.98 195.96 Z" />
<path fill="#8ddcf4" opacity="1.00" d=" M 378.10 198.64 C 379.61 197.95 381.28 197.61 382.94 197.95 L 383.02 198.49 C 381.74 199.64 379.50 199.45 378.10 198.64 Z" />
</g>
<g id="#6dd2f1ff">
<path fill="#6dd2f1" opacity="1.00" d=" M 215.04 196.93 C 216.11 196.73 217.07 196.98 217.92 197.69 C 217.21 197.69 215.78 197.69 215.07 197.69 L 215.04 196.93 Z" />
</g>
<g id="#99dff5ff">
<path fill="#99dff5" opacity="1.00" d=" M 219.02 197.92 C 220.36 197.73 221.69 198.03 222.91 198.59 C 221.59 199.60 220.28 199.59 218.99 198.57 L 219.02 197.92 Z" />
</g>
<g id="#a9e4f7ff">
<path fill="#a9e4f7" opacity="1.00" d=" M 226.00 199.11 C 230.66 199.59 235.38 199.75 239.95 200.88 C 236.58 200.55 232.36 202.15 229.51 200.05 C 228.33 200.02 227.17 200.00 226.00 200.00 L 226.00 199.11 Z" />
</g>
</svg>
